<?xml version="1.0" encoding="utf-8"?>
<!-- Generator: Adobe Illustrator 27.9.0, SVG Export Plug-In . SVG Version: 6.00 Build 0)  -->
<svg version="1.1" id="K_x2B_R_x2B_Kern_2" xmlns="http://www.w3.org/2000/svg" xmlns:xlink="http://www.w3.org/1999/xlink" x="0px"
	 y="0px" viewBox="0 0 170.08 170.08" style="enable-background:new 0 0 170.08 170.08;" xml:space="preserve">
<style type="text/css">
	.st0{fill:#F1614B;}
	.st1{fill:#1DBBB2;}
	.st2{fill:#118693;}
	.st3{fill:#FFFFFF;}
</style>
<rect class="st0" width="170.08" height="170.08"/>
<path class="st3" d="M116.42,78.63c-3.6-11.09-11.96-16.71-23.62-16.71c-8.39,0-14.04,2.74-17.37,6.83
	c-0.12,0.11-0.27,0.18-0.44,0.18c-0.35,0-0.62-0.28-0.62-0.62V36.72c0-0.87-0.58-1.44-1.44-1.44H52.64c-0.87,0-1.44,0.58-1.44,1.44
	v7.04c0,0.44,0.33,0.8,0.76,0.85v0.01c2.31,0.22,3.9,1.44,4.6,3.71c0.44,1.36,0.65,2.88,0.65,5.97c0,3.1-0.21,4.61-0.65,5.98
	c-0.7,2.2-2.29,3.47-4.6,3.69v0.01c-0.43,0.05-0.76,0.41-0.76,0.85v8.87c0,0.44,0.33,0.81,0.76,0.86c0.03,0.01,0.07,0.01,0.1,0.01
	c2.25,0.25,3.81,1.46,4.5,3.7c0.44,1.37,0.65,2.88,0.65,5.97c0,3.1-0.21,4.61-0.65,5.98c-0.7,2.2-2.29,3.47-4.6,3.69v0.01
	c-0.43,0.05-0.76,0.41-0.76,0.85v8.87c0,0.44,0.33,0.81,0.76,0.86v0.01c2.31,0.22,3.9,1.43,4.6,3.7c0.44,1.37,0.65,2.88,0.65,5.97
	c0,3.1-0.21,4.61-0.65,5.98c-0.7,2.2-2.29,3.47-4.6,3.69v0.01c-0.43,0.05-0.76,0.41-0.76,0.85v7.06c0,0.86,0.57,1.44,1.44,1.44
	h20.29c0.86,0,1.44-0.58,1.44-1.44v-3.36c0-0.34,0.27-0.62,0.62-0.62c0.17,0,0.32,0.07,0.44,0.18c3.33,4.08,8.97,6.82,17.37,6.82
	c11.66,0,20.02-5.76,23.62-16.7c1.73-5.48,2.45-10.8,2.45-19.73C118.87,89.28,118.15,84.1,116.42,78.63z M97.12,110.31
	c-1.58,4.9-5.33,7.49-10.8,7.49c-5.33,0-9.07-2.59-10.66-7.49c-0.86-2.74-1.29-5.76-1.29-11.95c0-6.2,0.43-9.22,1.29-11.96
	c1.59-5.04,5.33-7.49,10.66-7.49c5.47,0,9.22,2.45,10.8,7.49c0.86,2.74,1.3,5.76,1.3,11.96C98.42,104.55,97.98,107.57,97.12,110.31z
	"/>
</svg>
