<?xml version="1.0" encoding="UTF-8"?><svg id="K_R_Kern_2" xmlns="http://www.w3.org/2000/svg" viewBox="0 0 68.36 99.51"><defs><style>.cls-1{fill:#fff;stroke-width:0px;}</style></defs><path class="cls-1" d="m65.22,43.35c-3.6-11.09-11.96-16.71-23.62-16.71-8.39,0-14.04,2.74-17.37,6.83-.12.11-.27.18-.44.18-.35,0-.62-.28-.62-.62V1.44C23.17.57,22.59,0,21.73,0H1.44C.57,0,0,.58,0,1.44v7.04c0,.44.33.8.76.85h0c2.31.23,3.9,1.45,4.6,3.72.44,1.36.65,2.88.65,5.97s-.21,4.61-.65,5.98c-.7,2.2-2.29,3.47-4.6,3.69h0c-.43.06-.76.42-.76.86v8.87c0,.44.33.81.76.86.03.01.07.01.1.01,2.25.25,3.81,1.46,4.5,3.7.44,1.37.65,2.88.65,5.97s-.21,4.61-.65,5.98c-.7,2.2-2.29,3.47-4.6,3.69h0c-.43.06-.76.42-.76.86v8.87c0,.44.33.81.76.86h0c2.31.23,3.9,1.44,4.6,3.71.44,1.37.65,2.88.65,5.97s-.21,4.61-.65,5.98c-.7,2.2-2.29,3.47-4.6,3.69h0c-.43.06-.76.42-.76.86v7.06c0,.86.57,1.44,1.44,1.44h20.29c.86,0,1.44-.58,1.44-1.44v-3.36c0-.34.27-.62.62-.62.17,0,.32.07.44.18,3.33,4.08,8.97,6.82,17.37,6.82,11.66,0,20.02-5.76,23.62-16.7,1.73-5.48,2.45-10.8,2.45-19.73s-.72-14.26-2.45-19.73Zm-19.3,31.68c-1.58,4.9-5.33,7.49-10.8,7.49s-9.07-2.59-10.66-7.49c-.86-2.74-1.29-5.76-1.29-11.95s.43-9.22,1.29-11.96c1.59-5.04,5.33-7.49,10.66-7.49s9.22,2.45,10.8,7.49c.86,2.74,1.3,5.76,1.3,11.96s-.44,9.21-1.3,11.95Z"/></svg>