<?xml version="1.0" encoding="utf-8"?>
<!-- Generator: Adobe Illustrator 27.9.0, SVG Export Plug-In . SVG Version: 6.00 Build 0)  -->
<svg version="1.1" id="K_x2B_R_x2B_Kern_2" xmlns="http://www.w3.org/2000/svg" xmlns:xlink="http://www.w3.org/1999/xlink" x="0px"
	 y="0px" viewBox="0 0 427.3 181.57" style="enable-background:new 0 0 427.3 181.57;" xml:space="preserve">
<style type="text/css">
	.st0{fill:#F1614B;}
	.st1{fill:#1DBBB2;}
	.st2{fill:#118693;}
	.st3{fill:#FFFFFF;}
</style>
<path class="st0" d="M122.89,60.91c-0.86,0-1.44-0.58-1.44-1.44V45.21c0-0.86,0.58-1.44,1.44-1.44h17.28c0.86,0,1.44,0.58,1.44,1.44
	v14.26c0,0.86-0.58,1.44-1.44,1.44H122.89z M122.89,141.7c-0.86,0-1.44-0.58-1.44-1.44V73.44c0-0.86,0.58-1.44,1.44-1.44h17.28
	c0.86,0,1.44,0.58,1.44,1.44v66.82c0,0.86-0.58,1.44-1.44,1.44H122.89z"/>
<path class="st1" d="M181.07,142.56c-15.41,0-21.6-6.77-21.6-22.18V45.21c0-0.86,0.58-1.44,1.44-1.44h17.28
	c0.86,0,1.44,0.58,1.44,1.44v73.59c0,4.75,1.87,6.62,6.05,6.62h3.02c0.86,0,1.44,0.58,1.44,1.44v14.26c0,0.86-0.58,1.44-1.44,1.44
	H181.07z"/>
<path class="st1" d="M202.52,123.41c-1.44-4.32-2.45-9.36-2.45-16.56c0-7.34,0.86-12.39,2.3-16.71
	c4.03-12.53,15.12-19.73,29.95-19.73c15.41,0,26.07,7.34,30.1,19.59c1.44,4.61,2.3,9.65,2.3,21.46c0,0.86-0.57,1.44-1.58,1.44h-42.2
	c-0.58,0-0.86,0.29-0.86,0.86c0.14,1.44,0.43,2.74,0.86,3.89c1.87,6.05,7.2,9.22,14.4,9.22c6.91,0,11.95-2.45,15.98-6.19
	c0.72-0.58,1.44-0.72,2.02,0l9.5,8.93c0.72,0.58,0.72,1.44,0.14,2.02c-6.62,7.06-16.85,11.67-29.67,11.67
	C217.5,143.28,206.55,135.94,202.52,123.41z M244,99.51c0.57,0,0.86-0.29,0.86-0.86c0-2.16-0.29-3.74-0.72-5.18
	c-1.58-4.75-5.9-7.63-11.66-7.63c-5.76,0-10.08,2.88-11.66,7.63c-0.43,1.44-0.72,3.02-0.72,5.18c0,0.58,0.29,0.86,0.86,0.86H244z"/>
<path class="st2" d="M304.03,142.56c-16.13,0-22.18-7.2-22.18-23.19V87.7c0-0.58-0.29-0.86-0.87-0.86h-4.32
	c-0.86,0-1.44-0.58-1.44-1.44V73.44c0-0.86,0.57-1.44,1.44-1.44h4.32c0.58,0,0.87-0.29,0.87-0.86V52.41c0-0.86,0.57-1.44,1.44-1.44
	h17.14c0.87,0,1.44,0.58,1.44,1.44v18.72c0,0.58,0.29,0.86,0.86,0.86h8.93c0.86,0,1.44,0.58,1.44,1.44v11.95
	c0,0.86-0.58,1.44-1.44,1.44h-8.93c-0.57,0-0.86,0.29-0.86,0.86v30.82c0,5.18,1.73,6.91,6.34,6.91h3.46c0.86,0,1.44,0.58,1.44,1.44
	v14.26c0,0.86-0.58,1.44-1.44,1.44H304.03z"/>
<path class="st2" d="M327.42,123.7c-1.58-5.04-2.3-9.94-2.3-16.85c0-6.91,0.72-11.81,2.3-16.85c4.04-12.67,15.55-19.59,30.25-19.59
	c14.69,0,26.21,6.91,30.24,19.59c1.58,5.04,2.3,9.94,2.3,16.85c0,6.91-0.72,11.81-2.3,16.85c-4.04,12.67-15.55,19.59-30.24,19.59
	C342.97,143.28,331.45,136.37,327.42,123.7z M368.47,118.8c1.01-3.17,1.29-6.05,1.29-11.95c0-5.91-0.29-8.79-1.29-11.95
	c-1.59-4.9-5.47-7.49-10.8-7.49c-5.33,0-9.22,2.59-10.8,7.49c-1.01,3.17-1.3,6.05-1.3,11.95c0,5.9,0.29,8.78,1.3,11.95
	c1.58,4.9,5.47,7.49,10.8,7.49C362.99,126.29,366.88,123.7,368.47,118.8z"/>
<path class="st0" d="M104.32,87.12c-3.6-11.09-11.96-16.71-23.62-16.71c-8.39,0-14.04,2.74-17.37,6.83
	c-0.12,0.11-0.27,0.18-0.44,0.18c-0.35,0-0.62-0.28-0.62-0.62V45.21c0-0.87-0.58-1.44-1.44-1.44H40.54c-0.87,0-1.44,0.58-1.44,1.44
	v7.04c0,0.44,0.33,0.8,0.76,0.85v0.01c2.31,0.22,3.9,1.44,4.6,3.71c0.44,1.36,0.65,2.88,0.65,5.97c0,3.1-0.21,4.61-0.65,5.98
	c-0.7,2.2-2.29,3.47-4.6,3.69v0.01c-0.43,0.05-0.76,0.41-0.76,0.85v8.87c0,0.44,0.33,0.81,0.76,0.86c0.03,0.01,0.07,0.01,0.1,0.01
	c2.25,0.25,3.81,1.46,4.5,3.7c0.44,1.37,0.65,2.88,0.65,5.97c0,3.1-0.21,4.61-0.65,5.98c-0.7,2.2-2.29,3.47-4.6,3.69v0.01
	c-0.43,0.05-0.76,0.41-0.76,0.85v8.87c0,0.44,0.33,0.81,0.76,0.86V113c2.31,0.22,3.9,1.43,4.6,3.7c0.44,1.37,0.65,2.88,0.65,5.97
	c0,3.1-0.21,4.61-0.65,5.98c-0.7,2.2-2.29,3.47-4.6,3.69v0.01c-0.43,0.05-0.76,0.41-0.76,0.85v7.06c0,0.86,0.57,1.44,1.44,1.44
	h20.29c0.86,0,1.44-0.58,1.44-1.44v-3.36c0-0.34,0.27-0.62,0.62-0.62c0.17,0,0.32,0.07,0.44,0.18c3.33,4.08,8.97,6.82,17.37,6.82
	c11.66,0,20.02-5.76,23.62-16.7c1.73-5.48,2.45-10.8,2.45-19.73C106.77,97.77,106.05,92.59,104.32,87.12z M85.02,118.8
	c-1.58,4.9-5.33,7.49-10.8,7.49c-5.33,0-9.07-2.59-10.66-7.49c-0.86-2.74-1.29-5.76-1.29-11.95c0-6.2,0.43-9.22,1.29-11.96
	c1.59-5.04,5.33-7.49,10.66-7.49c5.47,0,9.22,2.45,10.8,7.49c0.86,2.74,1.3,5.76,1.3,11.96C86.32,113.04,85.88,116.06,85.02,118.8z"
	/>
</svg>
